<?xml version="1.0" standalone="no"?>
<!DOCTYPE svg PUBLIC "-//W3C//DTD SVG 20010904//EN"
 "http://www.w3.org/TR/2001/REC-SVG-20010904/DTD/svg10.dtd">
<svg version="1.0" xmlns="http://www.w3.org/2000/svg"
 width="581.000000pt" height="177.000000pt" viewBox="0 0 581.000000 177.000000"
 preserveAspectRatio="xMidYMid meet">
<metadata>
Created by potrace 1.16, written by Peter Selinger 2001-2019
</metadata>
<g transform="translate(0.000000,177.000000) scale(0.100000,-0.100000)"
fill="#000000" stroke="none">
<path d="M3426 1528 l-36 -91 32 -96 c27 -83 32 -115 36 -228 9 -274 -86 -684
-207 -892 -23 -38 -41 -72 -41 -75 0 -3 8 -6 19 -6 30 0 94 65 306 308 110
127 205 231 211 231 7 1 45 -36 85 -81 120 -136 309 -326 384 -386 39 -31 75
-62 81 -69 14 -17 165 -103 179 -103 5 0 16 4 24 9 11 7 -9 37 -95 134 -253
288 -438 518 -490 611 -13 24 -14 36 -4 74 12 50 66 117 289 360 72 79 128
149 124 154 -3 6 -1 8 4 5 6 -4 16 0 22 7 10 12 8 14 -13 12 -25 -3 -66 -32
-171 -121 -33 -28 -80 -67 -105 -86 -111 -90 -289 -261 -319 -308 -26 -39 -32
-59 -28 -84 4 -29 -9 -50 -130 -212 -74 -99 -139 -181 -144 -183 -5 -2 4 27
20 65 55 128 99 269 136 432 34 149 37 172 33 279 -4 106 -8 126 -42 212 -37
95 -104 220 -117 220 -4 0 -23 -41 -43 -92z"/>
<path d="M3794 1553 c-57 -33 -80 -58 -99 -105 -45 -120 32 -236 165 -246 71
-5 126 21 166 80 23 32 26 47 25 105 -1 75 -12 97 -73 146 -46 37 -136 47
-184 20z"/>
<path d="M1174 1127 c-3 -8 -4 -148 -2 -311 l3 -298 24 -19 c24 -20 85 -25
109 -10 8 5 12 21 10 37 -2 21 -9 30 -26 32 -14 2 -27 14 -33 28 -5 14 -9 144
-9 290 l0 264 -35 0 c-21 0 -38 -6 -41 -13z"/>
<path d="M1658 1038 l-3 -103 -67 -7 c-76 -7 -132 -34 -169 -81 -82 -104 -58
-272 48 -334 58 -34 177 -44 236 -20 l37 16 0 315 0 316 -40 0 -39 0 -3 -102z
m-14 -184 c23 -9 24 -275 1 -294 -20 -16 -96 -8 -130 14 -57 37 -78 149 -40
214 31 51 118 86 169 66z"/>
<path d="M293 1076 c-87 -28 -148 -81 -184 -161 -18 -39 -23 -69 -23 -136 0
-73 4 -93 28 -143 29 -59 75 -102 146 -134 51 -23 200 -21 265 4 l50 20 3 127
3 127 -41 0 -40 0 0 -104 c0 -120 4 -116 -108 -116 -127 0 -208 73 -219 199
-18 195 136 308 327 241 30 -11 58 -19 63 -20 12 0 8 67 -5 77 -40 31 -190 42
-265 19z"/>
<path d="M1944 1076 c-39 -17 -82 -72 -90 -115 -9 -42 19 -114 58 -146 16 -14
60 -43 98 -66 96 -57 124 -116 76 -164 -34 -33 -86 -41 -144 -21 -26 10 -54
19 -63 22 -11 4 -20 -4 -29 -26 -15 -36 -11 -41 48 -63 126 -49 285 14 299
120 11 86 -19 129 -150 213 -47 30 -90 65 -96 78 -36 79 26 127 136 104 26 -6
56 -14 66 -17 14 -6 17 -1 17 29 0 33 -4 39 -35 52 -43 18 -150 18 -191 0z"/>
<path d="M2353 1029 c-29 -9 -32 -13 -35 -57 -3 -45 -4 -47 -35 -50 -30 -3
-33 -6 -33 -38 0 -32 2 -34 34 -34 l35 0 3 -165 c4 -196 6 -200 96 -200 87 0
139 34 113 74 -7 11 -17 12 -51 3 -36 -9 -44 -8 -60 8 -15 15 -18 37 -19 148
l-2 131 57 3 c54 3 58 5 71 36 l13 32 -65 0 c-45 0 -65 4 -66 13 0 6 -1 32 -2
56 -2 49 -8 53 -54 40z"/>
<path d="M785 907 c-23 -13 -52 -43 -70 -71 -27 -45 -30 -58 -30 -131 0 -73 3
-87 30 -130 83 -134 273 -125 346 17 29 57 26 174 -5 236 -47 93 -179 131
-271 79z m154 -62 c55 -28 79 -149 45 -221 -52 -108 -165 -97 -211 21 -36 95
20 215 102 215 20 0 49 -7 64 -15z"/>
<path d="M2689 921 c-67 -22 -81 -41 -56 -74 11 -15 16 -15 52 -2 61 22 102
19 130 -10 14 -13 25 -36 25 -50 0 -24 -3 -25 -58 -25 -69 0 -160 -40 -179
-80 -31 -62 -2 -157 57 -187 38 -19 99 -16 148 9 41 19 45 20 54 5 5 -10 22
-17 40 -17 l31 0 -6 113 c-4 61 -7 142 -7 180 0 63 -2 70 -34 104 -32 35 -37
37 -102 40 -38 1 -81 -1 -95 -6z m151 -284 c0 -59 -12 -72 -77 -83 -78 -12
-125 69 -67 115 20 16 41 21 85 21 l59 0 0 -53z"/>
<path d="M3175 920 c-12 -4 -27 -15 -34 -24 -18 -21 -28 -20 -34 4 -4 15 -14
20 -41 20 l-36 0 0 -216 0 -215 43 3 42 3 3 158 3 158 32 20 c22 14 42 18 65
15 30 -4 34 -1 50 30 14 31 14 36 2 44 -18 12 -68 12 -95 0z"/>
<path d="M4235 923 c-38 -10 -87 -56 -110 -105 -53 -115 -5 -281 93 -319 60
-23 222 2 222 35 -1 31 -15 36 -72 24 -99 -21 -164 15 -183 100 l-7 32 136 0
136 0 0 48 c-1 126 -101 212 -215 185z m101 -87 c21 -21 34 -44 34 -60 l0 -26
-90 0 c-103 0 -114 8 -83 62 20 34 55 58 87 58 10 0 33 -15 52 -34z"/>
<path d="M4706 914 c-22 -8 -47 -21 -56 -29 -22 -20 -28 -19 -32 8 -2 17 -11
23 -36 25 l-32 3 2 -212 3 -213 30 0 30 0 5 154 5 155 50 27 c60 33 84 35 118
7 26 -20 27 -21 29 -182 l3 -162 33 -2 32 -1 0 174 c0 193 -7 221 -60 249 -36
18 -72 18 -124 -1z"/>
<path d="M5492 915 c-61 -19 -74 -31 -59 -58 7 -12 13 -23 14 -25 1 -2 13 4
28 14 16 10 47 18 76 18 59 1 87 -22 91 -74 l3 -35 -81 -5 c-64 -4 -89 -11
-116 -30 -36 -24 -58 -67 -58 -111 0 -33 48 -106 74 -113 49 -13 123 -6 149
14 30 24 43 25 51 5 3 -8 17 -15 31 -15 l25 0 0 169 c0 158 -1 170 -23 202
-37 55 -116 72 -205 44z m155 -271 c5 -63 -15 -85 -86 -92 -43 -4 -53 -1 -75
21 -63 63 1 129 118 124 l39 -2 4 -51z"/>
<path d="M4974 868 c13 -29 56 -124 95 -211 39 -87 71 -165 71 -173 0 -27 -50
-114 -75 -130 -18 -12 -39 -15 -70 -12 -44 5 -55 -2 -55 -37 0 -17 75 -27 123
-16 73 17 118 85 184 275 19 55 55 156 79 223 24 68 44 125 44 128 0 4 -17 5
-37 3 l-36 -3 -55 -162 c-29 -90 -57 -163 -62 -163 -7 0 -28 45 -127 273 -25
55 -27 57 -64 57 l-38 0 23 -52z"/>
</g>
</svg>
