<?xml version="1.0" standalone="no"?>
<!DOCTYPE svg PUBLIC "-//W3C//DTD SVG 20010904//EN"
 "http://www.w3.org/TR/2001/REC-SVG-20010904/DTD/svg10.dtd">
<svg version="1.0" xmlns="http://www.w3.org/2000/svg"
 width="622.000000pt" height="291.000000pt" viewBox="0 0 622.000000 291.000000"
 preserveAspectRatio="xMidYMid meet">
<metadata>
Created by potrace 1.16, written by Peter Selinger 2001-2019
</metadata>
<g transform="translate(0.000000,291.000000) scale(0.100000,-0.100000)"
fill="#000000" stroke="none">
<path d="M3585 2407 l-36 -94 32 -94 c28 -82 33 -110 37 -225 4 -123 1 -156
-34 -379 -24 -153 -106 -395 -175 -518 -22 -38 -39 -71 -39 -73 0 -2 9 -4 19
-4 30 0 103 73 311 313 107 124 200 226 206 226 7 1 45 -36 85 -81 169 -191
258 -280 379 -382 47 -39 92 -78 102 -86 9 -8 49 -32 88 -53 52 -29 78 -37 96
-33 25 7 24 8 -43 84 -231 257 -499 589 -542 671 -10 18 -10 33 -1 69 14 58
77 134 394 472 61 65 86 97 69 86 -8 -4 -13 -2 -13 4 0 20 -279 -207 -474
-385 -134 -123 -179 -184 -173 -235 4 -32 -7 -51 -132 -217 -75 -101 -139
-183 -143 -183 -3 0 11 42 32 94 56 136 95 265 131 427 27 126 30 157 27 259
-4 101 -8 125 -37 200 -35 89 -110 230 -122 230 -4 0 -24 -42 -44 -93z"/>
<path d="M3970 2443 c-146 -61 -172 -248 -47 -331 31 -21 54 -27 101 -29 76
-2 122 20 162 78 25 36 29 51 28 106 0 70 -13 95 -76 146 -28 23 -48 30 -94
33 -33 2 -66 1 -74 -3z"/>
<path d="M1337 2013 c-4 -3 -7 -137 -7 -297 0 -214 4 -298 13 -316 14 -29 69
-47 111 -36 23 6 27 11 24 39 -2 25 -8 33 -26 35 -14 2 -27 14 -33 28 -5 14
-9 144 -9 290 l0 264 -33 0 c-19 0 -37 -3 -40 -7z"/>
<path d="M1818 1918 l-3 -103 -67 -7 c-76 -7 -132 -34 -169 -81 -82 -104 -58
-272 48 -334 58 -34 177 -44 236 -20 l37 16 0 315 0 316 -40 0 -39 0 -3 -102z
m-14 -184 c23 -9 24 -275 1 -294 -20 -16 -96 -8 -130 14 -57 37 -78 149 -40
214 31 51 118 86 169 66z"/>
<path d="M453 1956 c-87 -28 -148 -81 -184 -161 -31 -69 -32 -199 -2 -266 26
-58 76 -109 139 -140 42 -20 63 -24 139 -23 62 1 106 7 140 21 l50 19 3 127 3
127 -41 0 -40 0 0 -105 0 -104 -35 -7 c-67 -12 -160 0 -199 26 -82 56 -116
174 -81 284 40 125 168 177 315 126 30 -10 58 -16 62 -14 13 8 9 61 -4 71 -40
31 -190 42 -265 19z"/>
<path d="M2104 1956 c-39 -17 -82 -72 -90 -115 -9 -42 19 -114 58 -146 16 -14
60 -43 98 -66 96 -57 124 -116 76 -164 -34 -33 -86 -41 -144 -21 -26 10 -54
19 -63 22 -11 4 -20 -4 -29 -26 -15 -36 -11 -41 48 -63 128 -50 285 13 299
121 11 83 -18 126 -138 203 -89 58 -119 90 -119 129 0 67 100 88 213 45 14 -6
17 -1 17 29 0 33 -4 39 -35 52 -43 18 -150 18 -191 0z"/>
<path d="M2513 1909 c-29 -9 -32 -13 -35 -57 -3 -45 -4 -47 -35 -50 -30 -3
-33 -6 -33 -38 0 -32 2 -34 35 -34 l35 0 0 -149 c0 -82 4 -161 9 -174 15 -38
63 -53 129 -39 65 14 87 31 77 61 -7 24 -16 25 -63 12 -27 -8 -36 -7 -53 10
-17 17 -19 34 -19 149 l0 130 55 0 c54 0 57 1 70 33 l13 32 -66 5 -67 5 0 54
c0 30 -4 55 -10 57 -5 1 -24 -2 -42 -7z"/>
<path d="M945 1787 c-23 -13 -52 -43 -70 -71 -27 -45 -30 -58 -30 -131 0 -73
3 -87 30 -130 83 -134 273 -125 346 17 29 57 26 174 -5 236 -47 93 -179 131
-271 79z m154 -62 c55 -28 79 -149 45 -221 -52 -108 -165 -97 -211 21 -36 95
20 215 102 215 20 0 49 -7 64 -15z"/>
<path d="M2849 1801 c-67 -22 -81 -41 -56 -74 11 -15 16 -15 52 -2 61 22 102
19 130 -10 14 -13 25 -36 25 -50 0 -24 -3 -25 -58 -25 -69 0 -160 -40 -179
-80 -31 -62 -2 -157 57 -187 38 -19 99 -16 148 9 41 19 45 20 54 5 5 -10 22
-17 40 -17 l31 0 -6 113 c-4 61 -7 142 -7 180 0 63 -2 70 -34 104 -32 35 -37
37 -102 40 -38 1 -81 -1 -95 -6z m151 -284 c0 -59 -12 -72 -77 -83 -78 -12
-125 69 -67 115 20 16 41 21 85 21 l59 0 0 -53z"/>
<path d="M3335 1800 c-12 -4 -27 -15 -34 -24 -18 -21 -28 -20 -34 4 -4 15 -14
20 -41 20 l-36 0 0 -216 0 -215 43 3 42 3 3 158 3 158 32 20 c22 14 42 18 65
15 30 -4 34 -1 50 30 14 31 14 36 2 44 -18 12 -68 12 -95 0z"/>
<path d="M4395 1803 c-38 -10 -87 -56 -110 -105 -49 -105 -10 -265 75 -310 44
-23 144 -24 200 -2 40 16 47 28 32 51 -6 10 -20 10 -64 1 -99 -21 -164 15
-183 100 l-7 32 136 0 136 0 0 48 c-1 126 -101 212 -215 185z m101 -87 c21
-21 34 -44 34 -60 l0 -26 -90 0 c-103 0 -114 8 -83 62 20 34 55 58 87 58 10 0
33 -15 52 -34z"/>
<path d="M4866 1794 c-22 -8 -47 -21 -56 -29 -22 -20 -28 -19 -32 8 -2 17 -11
23 -36 25 l-32 3 2 -212 3 -213 30 0 30 0 5 154 5 155 50 27 c60 33 84 35 118
7 26 -20 27 -21 29 -182 l3 -162 33 -2 32 -1 0 174 c0 193 -7 221 -60 249 -36
18 -72 18 -124 -1z"/>
<path d="M5652 1795 c-61 -19 -74 -32 -60 -59 6 -11 12 -22 13 -24 2 -2 15 4
30 14 16 10 47 18 76 18 59 1 90 -24 92 -75 l2 -34 -81 -5 c-90 -6 -123 -22
-154 -73 -27 -43 -25 -82 5 -132 27 -47 45 -55 121 -55 36 0 59 6 77 20 30 24
43 25 51 5 3 -8 18 -15 33 -15 l28 0 -5 174 c-4 157 -7 177 -26 203 -37 49
-117 65 -202 38z m156 -271 c4 -63 -17 -85 -87 -92 -43 -4 -53 -1 -75 21 -63
63 1 129 119 124 l40 -2 3 -51z"/>
<path d="M5120 1791 c0 -6 41 -101 90 -211 50 -110 90 -207 90 -215 0 -28 -50
-114 -75 -131 -18 -12 -39 -15 -70 -12 -44 5 -55 -2 -55 -37 0 -17 75 -27 123
-16 82 19 112 73 227 397 44 124 80 228 80 230 0 3 -17 4 -37 2 l-36 -3 -55
-162 c-29 -90 -57 -163 -62 -163 -4 0 -31 53 -59 118 -86 198 -91 207 -128
210 -19 2 -33 -1 -33 -7z"/>
<path d="M217 824 c-4 -4 -7 -56 -7 -116 l0 -108 43 -1 c23 -1 65 -2 92 -3
l50 -1 5 62 c5 65 19 90 44 80 11 -4 16 -24 18 -74 2 -52 6 -68 18 -68 11 0
16 15 18 62 3 63 19 90 46 80 11 -4 16 -26 18 -74 2 -52 6 -68 18 -68 12 0 16
15 18 67 5 105 2 107 -124 105 -94 -1 -107 -3 -112 -19 -3 -15 -15 -18 -59
-18 l-54 0 3 33 c3 32 3 32 66 37 34 3 63 10 65 15 2 11 -155 20 -166 9z"/>
<path d="M4264 817 c-2 -7 -3 -60 -2 -117 l3 -104 57 -4 c52 -3 58 -1 74 23
21 33 22 97 0 130 -13 20 -25 25 -56 25 -38 0 -40 2 -40 30 0 31 -26 43 -36
17z"/>
<path d="M5157 824 c-4 -4 -7 -56 -7 -115 0 -91 3 -108 17 -113 24 -9 33 11
33 75 0 43 4 58 16 63 29 11 43 -13 46 -77 2 -47 7 -62 18 -62 11 0 16 15 18
63 4 81 -13 112 -63 112 -29 0 -34 4 -37 27 -3 27 -26 41 -41 27z"/>
<path d="M5648 723 c-1 -98 -2 -102 -7 -40 -7 77 -15 87 -77 87 -28 0 -46 -6
-59 -20 -27 -30 -6 -48 28 -25 30 19 62 17 62 -5 0 -9 -14 -17 -39 -21 -24 -4
-47 -16 -59 -30 -11 -13 -24 -23 -29 -21 -6 1 -21 -4 -34 -13 -29 -19 -39 -19
-58 1 -27 27 -18 34 44 34 59 0 60 0 60 28 0 42 -33 72 -80 72 -49 0 -80 -35
-80 -90 0 -54 31 -90 79 -90 20 0 47 7 59 16 21 14 25 15 40 0 14 -12 37 -14
102 -12 l85 3 0 114 c0 100 -2 114 -17 117 -16 3 -18 -8 -20 -105z"/>
<path d="M5837 824 c-4 -4 -7 -56 -7 -116 0 -101 1 -108 20 -108 18 0 20 7 20
59 0 61 16 89 45 77 11 -4 15 -22 15 -71 0 -58 2 -65 20 -65 18 0 20 7 20 66
0 86 -10 104 -60 104 -34 0 -39 3 -42 27 -3 26 -18 39 -31 27z"/>
<path d="M634 761 c-2 -2 -4 -55 -4 -118 0 -106 1 -113 20 -113 16 0 20 7 20
30 0 27 3 30 34 30 47 0 76 37 76 96 0 63 -25 85 -91 82 -27 -1 -52 -4 -55 -7z"/>
<path d="M829 744 c-52 -56 -16 -154 58 -154 73 0 110 92 62 154 -28 36 -86
36 -120 0z"/>
<path d="M975 758 c-3 -7 5 -47 18 -88 18 -59 27 -75 42 -75 15 0 23 12 34 50
l14 50 11 -42 c13 -50 31 -72 47 -56 17 17 58 162 48 169 -17 10 -37 -16 -44
-57 -9 -52 -20 -49 -31 9 -7 37 -13 47 -29 47 -15 0 -23 -12 -34 -50 -15 -53
-16 -52 -37 19 -10 32 -31 45 -39 24z"/>
<path d="M1229 738 c-26 -42 -20 -105 11 -130 31 -25 92 -23 115 2 28 31 6 46
-33 23 -29 -17 -31 -17 -51 1 -29 27 -18 36 45 36 53 0 54 0 54 30 0 43 -31
70 -80 70 -35 0 -43 -5 -61 -32z"/>
<path d="M1572 681 c2 -69 6 -86 18 -86 11 0 16 15 18 62 3 63 19 90 46 80 11
-4 16 -26 18 -74 2 -55 6 -68 21 -71 15 -3 17 6 17 76 0 54 -4 83 -13 91 -7 6
-39 10 -71 9 l-57 -2 3 -85z"/>
<path d="M1753 743 c-10 -14 -18 -44 -18 -66 0 -51 43 -92 87 -83 30 6 36 -2
16 -22 -17 -17 -38 -15 -60 5 -14 12 -21 14 -30 5 -20 -20 19 -52 64 -52 65 0
78 22 78 140 l0 100 -60 0 c-54 0 -61 -3 -77 -27z"/>
<path d="M2011 744 c-47 -60 -13 -154 56 -154 20 0 45 7 55 17 17 15 19 15 36
0 28 -26 84 -22 112 8 28 29 31 92 6 130 -13 20 -25 25 -58 25 -24 0 -49 -7
-59 -16 -17 -15 -19 -15 -34 0 -10 9 -33 16 -55 16 -30 0 -43 -6 -59 -26z"/>
<path d="M2314 755 c-3 -6 -4 -45 -2 -86 3 -66 5 -74 23 -74 18 0 20 8 23 67
2 49 7 68 18 72 27 10 34 -3 34 -70 0 -49 4 -66 15 -71 24 -9 30 3 35 75 4 59
7 67 25 67 18 0 21 -8 25 -70 4 -53 9 -70 20 -70 12 0 16 16 18 73 2 43 -2 79
-8 87 -15 18 -219 18 -226 0z"/>
<path d="M2585 761 c-10 -9 -5 -160 5 -166 23 -14 40 16 36 66 -3 55 12 86 37
76 12 -4 17 -23 19 -74 2 -52 6 -68 18 -68 11 0 16 16 20 62 5 65 19 90 44 80
11 -4 16 -24 18 -74 2 -52 6 -68 18 -68 12 0 16 16 18 73 2 44 -2 79 -8 87 -8
10 -40 13 -116 12 -57 0 -107 -3 -109 -6z"/>
<path d="M2857 763 c-4 -3 -7 -37 -7 -74 0 -88 12 -101 89 -97 l56 4 0 84 c0
78 -2 85 -20 85 -18 0 -20 -8 -23 -62 -3 -68 -21 -95 -47 -73 -10 9 -15 32
-15 76 0 47 -4 64 -13 64 -8 0 -17 -3 -20 -7z"/>
<path d="M3025 761 c-3 -2 -5 -39 -5 -82 0 -61 3 -78 16 -83 27 -10 34 3 34
63 0 62 14 86 43 75 12 -4 17 -23 19 -72 2 -52 6 -67 18 -67 12 0 16 15 18 67
4 97 -5 109 -79 106 -33 -1 -62 -4 -64 -7z"/>
<path d="M3476 748 c-8 -13 -17 -33 -21 -46 -9 -30 12 -90 35 -102 27 -14 82
-12 106 4 17 12 22 12 39 0 27 -20 88 -18 108 4 36 39 12 81 -55 97 -31 8 -36
22 -13 32 9 3 25 -3 36 -13 15 -14 22 -15 32 -5 23 23 -5 46 -59 46 -39 0 -50
-4 -59 -21 l-10 -21 -18 23 c-25 34 -100 34 -121 2z"/>
<path d="M3921 744 c-27 -35 -28 -93 0 -128 16 -20 29 -26 59 -26 70 0 106 70
73 139 -16 33 -22 36 -64 39 -41 3 -50 -1 -68 -24z"/>
<path d="M4461 744 c-13 -16 -21 -41 -21 -64 0 -57 31 -90 84 -90 30 0 48 6
60 19 31 34 -1 56 -36 24 -15 -13 -23 -14 -43 -5 -14 6 -25 18 -25 27 0 12 13
15 60 15 56 0 60 1 60 24 0 13 -9 35 -21 50 -29 37 -89 37 -118 0z"/>
<path d="M4831 744 c-13 -16 -21 -41 -21 -64 0 -57 31 -90 84 -90 30 0 48 6
61 20 28 31 6 47 -34 24 -29 -17 -31 -17 -51 1 -11 10 -20 22 -20 26 0 4 29 9
65 11 l64 3 3 -40 c2 -28 8 -40 18 -40 11 0 16 13 18 50 4 79 10 97 31 90 12
-3 21 0 25 10 7 20 -12 27 -56 23 -27 -2 -34 -8 -39 -33 -4 -16 -7 -25 -8 -19
0 5 -10 20 -21 32 -31 33 -92 30 -119 -4z"/>
</g>
</svg>
